<svg xmlns="http://www.w3.org/2000/svg" viewBox="0 0 620 190" width="620" height="190" role="img" aria-label="Med Escolha — por amo medicina">
  <g transform="translate(14,35) scale(0.49587)"><path fill="#E30613" d="M 113.5 8 L 167.5 8 Q 168.8 10.3 173.5 9 L 185.5 13 L 192.5 17 L 205 28.5 L 212 39.5 L 212 41.5 L 215 47.5 L 216 56.5 L 217 57.5 L 217 156.5 Q 216 158 215 155.5 L 213 149.5 L 203.5 138 L 189.5 129 L 180.5 126 L 177.5 126 L 176.5 125 L 172.5 125 L 171.5 124 L 162.5 124 L 161.5 123 L 109.5 123 L 108.5 122 L 101.5 121 Q 84.1 114.9 74 101.5 Q 67.2 92.3 63 80.5 Q 64 76.5 62 75.5 L 62 56.5 L 68 38.5 L 74 29.5 L 82.5 21 L 97.5 12 L 103.5 10 L 106.5 10 L 107.5 9 L 112.5 9 L 113.5 8 Z "></path><path fill="#007BFF" d="M 40.5 85 L 64.5 85 L 66 86.5 Q 71.9 102.6 84.5 112 L 98.5 120 L 108.5 122 L 109.5 123 L 161.5 123 L 162.5 124 L 171.5 124 Q 172.5 126 176.5 125 L 193.5 131 L 198.5 134 L 208 142.5 L 217 157.5 L 217 234.5 Q 216 236 215 233.5 L 215 231.5 L 211 224.5 L 201.5 214 L 185.5 205 L 175.5 203 L 174.5 202 L 168.5 202 L 167.5 201 L 40.5 201 Q 39.3 198.8 34.5 200 L 33.5 199 L 30.5 199 L 24.5 197 L 16.5 193 L 2 180.5 L 0 177.5 L 0 108.5 L 8.5 99 L 13.5 95 L 24.5 89 L 30.5 87 L 33.5 87 L 34.5 86 L 39.5 86 L 40.5 85 Z M 60 134 L 57 135 L 51 141 L 50 144 L 50 148 L 52 153 L 59 157 L 65 157 L 69 155 L 73 148 L 73 145 L 71 140 L 67 135 L 60 134 Z M 102 134 L 97 136 L 92 142 Q 91 148 93 152 L 98 156 L 101 157 L 106 157 L 110 155 L 113 152 L 114 149 L 114 143 L 112 139 Q 109 134 102 134 Z M 143 134 L 136 137 L 136 139 L 133 143 L 133 149 L 135 153 L 142 157 Q 147 158 150 156 L 155 150 Q 156 143 154 140 Q 151 136 147 134 L 143 134 Z "></path><path fill="#FFFFFF" d="M 241.5 96 L 242 202.5 Q 241 204 240 201.5 L 237 193.5 L 237 113.5 L 238 112.5 L 238 106.5 L 239 105.5 L 240 98.5 L 241.5 96 Z "></path><path fill="#FFFFFF" d="M 59.5 134 L 66.5 135 L 71 139.5 L 73 144.5 L 73 147.5 L 68.5 155 L 64.5 157 L 58.5 157 L 52 152.5 L 50 147.5 L 50 143.5 L 51 140.5 L 56.5 135 L 59.5 134 Z "></path><path fill="#FFFFFF" d="M 101.5 134 Q 109 134 112 138.5 L 114 142.5 L 114 148.5 L 113 151.5 L 109.5 155 L 105.5 157 L 100.5 157 L 97.5 156 L 93 151.5 Q 90.7 148.3 92 141.5 L 96.5 136 L 101.5 134 Z "></path><path fill="#FFFFFF" d="M 142.5 134 L 146.5 134 Q 151.3 135.7 154 139.5 Q 156.3 142.7 155 149.5 L 149.5 156 Q 147 158 141.5 157 L 135 152.5 L 133 148.5 L 133 142.5 L 136 138.5 L 136 137 L 142.5 134 Z "></path></g>
  <path d="M192.45 56.74Q194.30 56.74 195.55 57.98Q196.80 59.23 196.80 61.09L196.80 61.09L196.80 95.65Q196.80 97.44 195.55 98.72Q194.30 100 192.45 100L192.45 100Q190.66 100 189.38 98.72Q188.10 97.44 188.10 95.65L188.10 95.65L188.10 72.61L179.97 83.10Q179.33 83.94 178.43 84.35Q177.54 84.77 176.64 84.70L176.64 84.70Q175.74 84.77 174.85 84.35Q173.95 83.94 173.31 83.10L173.31 83.10L165.18 72.61L165.18 95.65Q165.18 97.44 163.94 98.72Q162.69 100 160.83 100L160.83 100Q159.04 100 157.76 98.72Q156.48 97.44 156.48 95.65L156.48 95.65L156.48 61.09Q156.48 59.23 157.76 57.98Q159.04 56.74 160.83 56.74L160.83 56.74Q161.98 56.74 162.91 57.25Q163.84 57.76 164.42 58.66L164.42 58.66L176.64 74.40L188.86 58.66Q189.44 57.76 190.37 57.25Q191.30 56.74 192.45 56.74L192.45 56.74ZM219.14 100.26Q214.72 100.26 211.33 98.30Q207.94 96.35 206.08 92.86Q204.22 89.38 204.22 84.83L204.22 84.83Q204.22 80.22 206.14 76.54Q208.06 72.86 211.39 70.82Q214.72 68.77 218.69 68.77L218.69 68.77Q222.91 68.77 226.21 70.88Q229.50 72.99 231.33 76.61Q233.15 80.22 233.15 84.64L233.15 84.64Q233.15 86.05 232.13 87.10Q231.10 88.16 229.63 88.16L229.63 88.16L212.99 88.16Q213.63 90.27 215.26 91.42Q216.90 92.58 219.46 92.58L219.46 92.58Q222.66 92.58 225.66 91.36L225.66 91.36Q226.56 91.10 227.07 91.10L227.07 91.10Q228.67 91.10 229.79 92.22Q230.91 93.34 230.91 94.94L230.91 94.94Q230.91 96.22 230.21 97.22Q229.50 98.21 228.35 98.59L228.35 98.59Q223.81 100.26 219.14 100.26L219.14 100.26ZM212.99 81.12L224.19 81.12Q223.74 79.07 222.14 77.79Q220.54 76.51 218.69 76.51L218.69 76.51Q216.83 76.51 215.14 77.79Q213.44 79.07 212.99 81.12L212.99 81.12ZM265.66 54.82Q267.39 54.82 268.64 56.06Q269.89 57.31 269.89 59.04L269.89 59.04L269.89 95.78Q269.89 97.50 268.64 98.75Q267.39 100 265.66 100L265.66 100Q264.19 100 263.04 99.07Q261.89 98.14 261.57 96.74L261.57 96.74Q259.71 98.46 257.41 99.42Q255.10 100.38 252.54 100.38L252.54 100.38Q248.77 100.38 245.60 98.34Q242.43 96.29 240.61 92.67Q238.78 89.06 238.78 84.58L238.78 84.58Q238.78 80.10 240.61 76.48Q242.43 72.86 245.60 70.82Q248.77 68.77 252.54 68.77L252.54 68.77Q255.10 68.77 257.38 69.70Q259.65 70.62 261.44 72.35L261.44 72.35L261.44 59.04Q261.44 57.31 262.69 56.06Q263.94 54.82 265.66 54.82L265.66 54.82ZM254.53 92.70Q257.54 92.70 259.62 90.40Q261.70 88.10 261.70 84.58L261.70 84.58Q261.70 81.06 259.62 78.75Q257.54 76.45 254.53 76.45L254.53 76.45Q251.52 76.45 249.44 78.75Q247.36 81.06 247.36 84.58L247.36 84.58Q247.36 88.10 249.44 90.40Q251.52 92.70 254.53 92.70L254.53 92.70ZM320.32 92.06Q321.98 92.06 323.14 93.22Q324.29 94.37 324.29 96.03L324.29 96.03Q324.29 97.63 323.14 98.82Q321.98 100 320.32 100L320.32 100L303.04 100L303.04 100L303.04 100Q301.25 100 299.97 98.72Q298.69 97.44 298.69 95.65L298.69 95.65L298.69 61.09Q298.69 59.23 299.97 57.98Q301.25 56.74 303.04 56.74L303.04 56.74L303.04 56.74L320.32 56.74Q321.98 56.74 323.14 57.89Q324.29 59.04 324.29 60.70L324.29 60.70Q324.29 62.30 323.14 63.49Q321.98 64.67 320.32 64.67L320.32 64.67L307.39 64.67L307.39 74.78L318.40 74.78Q320.06 74.78 321.22 75.94Q322.37 77.09 322.37 78.75L322.37 78.75Q322.37 80.35 321.22 81.54Q320.06 82.72 318.40 82.72L318.40 82.72L307.39 82.72L307.39 92.06L320.32 92.06ZM341.82 100.32Q336 100.32 331.65 97.76L331.65 97.76Q330.88 97.25 330.40 96.45Q329.92 95.65 329.92 94.69L329.92 94.69Q329.92 93.28 330.94 92.26Q331.97 91.23 333.44 91.23L333.44 91.23Q334.34 91.23 334.85 91.49L334.85 91.49Q338.88 93.34 342.27 93.34L342.27 93.34Q344 93.34 345.02 92.77Q346.05 92.19 346.11 91.17L346.11 91.17Q346.11 89.95 344.83 89.31Q343.55 88.67 340.61 87.78L340.61 87.78Q337.41 86.88 335.33 85.98Q333.25 85.09 331.74 83.30Q330.24 81.50 330.24 78.56L330.24 78.56Q330.24 74.14 333.57 71.46Q336.90 68.77 342.34 68.77L342.34 68.77Q344.90 68.77 347.14 69.34Q349.38 69.92 351.68 71.07L351.68 71.07Q352.58 71.52 353.12 72.38Q353.66 73.25 353.66 74.27L353.66 74.27Q353.66 75.68 352.64 76.74Q351.62 77.79 350.14 77.79L350.14 77.79Q349.44 77.79 348.67 77.47L348.67 77.47Q346.94 76.70 345.25 76.26Q343.55 75.81 342.34 75.81L342.34 75.81Q340.67 75.81 339.65 76.51Q338.62 77.22 338.62 78.30L338.62 78.30Q338.62 79.46 339.90 80.10Q341.18 80.74 344 81.44L344 81.44Q347.26 82.34 349.34 83.23Q351.42 84.13 352.96 85.92Q354.50 87.71 354.50 90.72L354.50 90.72Q354.50 95.14 351.20 97.73Q347.90 100.32 341.82 100.32L341.82 100.32ZM376.38 100.38Q372.03 100.38 368.45 98.34Q364.86 96.29 362.75 92.67Q360.64 89.06 360.64 84.58L360.64 84.58Q360.64 80.10 362.75 76.48Q364.86 72.86 368.45 70.82Q372.03 68.77 376.38 68.77L376.38 68.77Q381.57 68.77 385.79 71.78L385.79 71.78Q386.56 72.29 386.98 73.15Q387.39 74.02 387.39 74.98L387.39 74.98Q387.39 76.58 386.24 77.73Q385.09 78.88 383.49 78.88L383.49 78.88Q382.14 78.88 381.12 78.05L381.12 78.05Q378.94 76.45 376.38 76.45L376.38 76.45Q373.38 76.45 371.30 78.75Q369.22 81.06 369.22 84.58L369.22 84.58Q369.22 88.10 371.30 90.40Q373.38 92.70 376.38 92.70L376.38 92.70Q378.94 92.70 381.12 91.10L381.12 91.10Q382.14 90.27 383.49 90.27L383.49 90.27Q385.09 90.27 386.24 91.42Q387.39 92.58 387.39 94.18L387.39 94.18Q387.39 95.14 386.98 96Q386.56 96.86 385.79 97.38L385.79 97.38Q381.57 100.38 376.38 100.38L376.38 100.38ZM409.02 100.38Q404.67 100.38 401.09 98.34Q397.50 96.29 395.39 92.67Q393.28 89.06 393.28 84.58L393.28 84.58Q393.28 80.10 395.39 76.48Q397.50 72.86 401.09 70.82Q404.67 68.77 409.02 68.77L409.02 68.77Q413.38 68.77 416.96 70.82Q420.54 72.86 422.66 76.48Q424.77 80.10 424.77 84.58L424.77 84.58Q424.77 89.06 422.66 92.67Q420.54 96.29 416.96 98.34Q413.38 100.38 409.02 100.38L409.02 100.38ZM409.02 92.70Q412.03 92.70 414.11 90.40Q416.19 88.10 416.19 84.58L416.19 84.58Q416.19 81.06 414.11 78.75Q412.03 76.45 409.02 76.45L409.02 76.45Q406.02 76.45 403.94 78.75Q401.86 81.06 401.86 84.58L401.86 84.58Q401.86 88.10 403.94 90.40Q406.02 92.70 409.02 92.70L409.02 92.70ZM436.03 100Q434.30 100 433.06 98.75Q431.81 97.50 431.81 95.78L431.81 95.78L431.81 59.04Q431.81 57.31 433.06 56.06Q434.30 54.82 436.03 54.82L436.03 54.82Q437.76 54.82 439.01 56.06Q440.26 57.31 440.26 59.04L440.26 59.04L440.26 95.78Q440.26 97.50 439.01 98.75Q437.76 100 436.03 100L436.03 100ZM465.86 68.77Q471.17 68.77 474.27 72.06Q477.38 75.36 477.38 81.25L477.38 81.25L477.38 95.84Q477.38 97.57 476.16 98.78Q474.94 100 473.22 100L473.22 100Q471.49 100 470.27 98.78Q469.06 97.57 469.06 95.84L469.06 95.84L469.06 82.66Q469.06 79.84 467.30 78.14Q465.54 76.45 462.98 76.45L462.98 76.45Q460.35 76.45 458.56 78.30Q456.77 80.16 456.77 82.91L456.77 82.91L456.77 95.84Q456.77 97.57 455.55 98.78Q454.34 100 452.61 100L452.61 100Q450.88 100 449.66 98.78Q448.45 97.57 448.45 95.84L448.45 95.84L448.45 58.98Q448.45 57.25 449.66 56.03Q450.88 54.82 452.61 54.82L452.61 54.82Q454.34 54.82 455.55 56.03Q456.77 57.25 456.77 58.98L456.77 58.98L456.77 72.67Q458.30 70.82 460.64 69.79Q462.98 68.77 465.86 68.77L465.86 68.77ZM510.78 69.15Q512.51 69.15 513.76 70.40Q515.01 71.65 515.01 73.38L515.01 73.38L515.01 95.78Q515.01 97.50 513.76 98.75Q512.51 100 510.78 100L510.78 100Q509.31 100 508.16 99.07Q507.01 98.14 506.69 96.74L506.69 96.74Q504.83 98.46 502.53 99.42Q500.22 100.38 497.66 100.38L497.66 100.38Q493.89 100.38 490.72 98.34Q487.55 96.29 485.73 92.67Q483.90 89.06 483.90 84.58L483.90 84.58Q483.90 80.10 485.73 76.48Q487.55 72.86 490.72 70.82Q493.89 68.77 497.66 68.77L497.66 68.77Q500.22 68.77 502.53 69.73Q504.83 70.69 506.69 72.42L506.69 72.42Q507.01 71.01 508.16 70.08Q509.31 69.15 510.78 69.15L510.78 69.15ZM499.65 92.70Q502.66 92.70 504.74 90.40Q506.82 88.10 506.82 84.58L506.82 84.58Q506.82 81.06 504.74 78.75Q502.66 76.45 499.65 76.45L499.65 76.45Q496.64 76.45 494.56 78.75Q492.48 81.06 492.48 84.58L492.48 84.58Q492.48 88.10 494.56 90.40Q496.64 92.70 499.65 92.70L499.65 92.70Z" fill="#FFFFFF"></path>
  <path d="M161.95 123.71Q163.23 123.71 164.28 124.38Q165.33 125.05 165.95 126.24Q166.57 127.43 166.57 128.92L166.57 128.92Q166.57 130.41 165.95 131.60Q165.33 132.78 164.28 133.45Q163.23 134.13 161.95 134.13L161.95 134.13Q161.05 134.13 160.23 133.77Q159.41 133.41 158.78 132.76L158.78 132.76L158.78 136.77Q158.78 137.28 158.43 137.63Q158.09 137.99 157.58 137.99L157.58 137.99Q157.08 137.99 156.73 137.63Q156.39 137.28 156.39 136.77L156.39 136.77L156.39 125.03Q156.39 124.53 156.73 124.18Q157.08 123.84 157.58 123.84L157.58 123.84Q158.09 123.84 158.43 124.18Q158.78 124.53 158.78 125.03L158.78 125.03L158.78 125.08Q159.41 124.42 160.23 124.07Q161.05 123.71 161.95 123.71L161.95 123.71ZM161.43 131.94Q162.16 131.94 162.78 131.55Q163.40 131.16 163.76 130.47Q164.11 129.78 164.11 128.92L164.11 128.92Q164.11 128.06 163.76 127.36Q163.40 126.67 162.78 126.28Q162.16 125.89 161.43 125.89L161.43 125.89Q160.67 125.89 160.05 126.28Q159.43 126.67 159.07 127.36Q158.72 128.06 158.72 128.92L158.72 128.92Q158.72 129.78 159.07 130.47Q159.43 131.16 160.05 131.55Q160.67 131.94 161.43 131.94L161.43 131.94ZM173.73 134.13Q172.33 134.13 171.15 133.45Q169.97 132.78 169.28 131.60Q168.59 130.41 168.59 128.92L168.59 128.92Q168.59 127.43 169.28 126.24Q169.97 125.05 171.15 124.38Q172.33 123.71 173.73 123.71L173.73 123.71Q175.16 123.71 176.34 124.38Q177.51 125.05 178.19 126.24Q178.88 127.43 178.88 128.92L178.88 128.92Q178.88 130.41 178.19 131.60Q177.51 132.78 176.34 133.45Q175.16 134.13 173.73 134.13L173.73 134.13ZM173.73 131.94Q174.47 131.94 175.09 131.55Q175.71 131.16 176.07 130.47Q176.44 129.78 176.44 128.92L176.44 128.92Q176.44 128.06 176.07 127.36Q175.71 126.67 175.09 126.28Q174.47 125.89 173.73 125.89L173.73 125.89Q173.00 125.89 172.38 126.28Q171.76 126.67 171.39 127.36Q171.02 128.06 171.02 128.92L171.02 128.92Q171.02 129.78 171.39 130.47Q171.76 131.16 172.38 131.55Q173.00 131.94 173.73 131.94L173.73 131.94ZM186.63 123.71Q187.11 123.71 187.46 124.06Q187.80 124.40 187.80 124.89L187.80 124.89Q187.80 125.37 187.46 125.73Q187.11 126.08 186.63 126.08L186.63 126.08Q185.09 126.08 184.33 126.90Q183.56 127.72 183.56 129.57L183.56 129.57L183.56 132.82Q183.56 133.31 183.20 133.65Q182.85 134 182.36 134L182.36 134Q181.88 134 181.53 133.65Q181.19 133.31 181.19 132.82L181.19 132.82L181.19 125.01Q181.19 124.53 181.53 124.18Q181.88 123.84 182.36 123.84L182.36 123.84Q182.85 123.84 183.20 124.18Q183.56 124.53 183.56 125.01L183.56 125.01L183.56 125.12Q184.06 124.44 184.85 124.08Q185.64 123.71 186.63 123.71L186.63 123.71ZM205.27 123.84Q205.76 123.84 206.11 124.18Q206.47 124.53 206.47 125.03L206.47 125.03L206.47 132.80Q206.47 133.29 206.11 133.64Q205.76 134 205.27 134L205.27 134Q204.77 134 204.41 133.64Q204.06 133.29 204.06 132.80L204.06 132.80L204.06 132.76Q203.43 133.41 202.62 133.77Q201.81 134.13 200.91 134.13L200.91 134.13Q199.63 134.13 198.58 133.45Q197.53 132.78 196.91 131.60Q196.29 130.41 196.29 128.92L196.29 128.92Q196.29 127.43 196.91 126.24Q197.53 125.05 198.58 124.38Q199.63 123.71 200.91 123.71L200.91 123.71Q201.81 123.71 202.62 124.07Q203.43 124.42 204.06 125.08L204.06 125.08L204.06 125.03Q204.06 124.53 204.41 124.18Q204.77 123.84 205.27 123.84L205.27 123.84ZM201.43 131.94Q202.17 131.94 202.79 131.55Q203.41 131.16 203.77 130.47Q204.14 129.78 204.14 128.92L204.14 128.92Q204.14 128.06 203.77 127.36Q203.41 126.67 202.79 126.28Q202.17 125.89 201.43 125.89L201.43 125.89Q200.70 125.89 200.08 126.28Q199.46 126.67 199.09 127.36Q198.72 128.06 198.72 128.92L198.72 128.92Q198.72 129.78 199.09 130.47Q199.46 131.16 200.08 131.55Q200.70 131.94 201.43 131.94L201.43 131.94ZM221.44 123.71Q223.23 123.71 224.30 124.79Q225.37 125.87 225.39 127.87L225.39 127.87L225.39 132.82Q225.39 133.31 225.04 133.65Q224.68 134 224.20 134L224.20 134Q223.71 134 223.37 133.65Q223.02 133.31 223.02 132.82L223.02 132.82L223.02 128.22Q223.02 127.15 222.36 126.52Q221.70 125.89 220.75 125.89L220.75 125.89Q219.76 125.89 219.09 126.59Q218.42 127.28 218.42 128.31L218.42 128.31L218.42 132.82Q218.42 133.31 218.06 133.65Q217.71 134 217.22 134L217.22 134Q216.74 134 216.39 133.65Q216.05 133.31 216.05 132.82L216.05 132.82L216.05 128.22Q216.05 127.15 215.39 126.52Q214.72 125.89 213.78 125.89L213.78 125.89Q212.79 125.89 212.12 126.59Q211.45 127.28 211.45 128.31L211.45 128.31L211.45 132.82Q211.45 133.31 211.09 133.65Q210.73 134 210.25 134L210.25 134Q209.77 134 209.42 133.65Q209.08 133.31 209.08 132.82L209.08 132.82L209.08 125.01Q209.08 124.53 209.42 124.17Q209.77 123.81 210.25 123.81L210.25 123.81Q210.73 123.81 211.09 124.17Q211.45 124.53 211.45 125.01L211.45 125.01L211.45 125.12Q211.97 124.44 212.77 124.08Q213.57 123.71 214.56 123.71L214.56 123.71Q215.67 123.71 216.52 124.17Q217.37 124.63 217.85 125.50L217.85 125.50Q218.42 124.66 219.34 124.18Q220.27 123.71 221.44 123.71L221.44 123.71ZM232.74 134.13Q231.34 134.13 230.16 133.45Q228.98 132.78 228.29 131.60Q227.60 130.41 227.60 128.92L227.60 128.92Q227.60 127.43 228.29 126.24Q228.98 125.05 230.16 124.38Q231.34 123.71 232.74 123.71L232.74 123.71Q234.17 123.71 235.35 124.38Q236.52 125.05 237.20 126.24Q237.89 127.43 237.89 128.92L237.89 128.92Q237.89 130.41 237.20 131.60Q236.52 132.78 235.35 133.45Q234.17 134.13 232.74 134.13L232.74 134.13ZM232.74 131.94Q233.48 131.94 234.10 131.55Q234.72 131.16 235.08 130.47Q235.45 129.78 235.45 128.92L235.45 128.92Q235.45 128.06 235.08 127.36Q234.72 126.67 234.10 126.28Q233.48 125.89 232.74 125.89L232.74 125.89Q232.01 125.89 231.39 126.28Q230.77 126.67 230.40 127.36Q230.03 128.06 230.03 128.92L230.03 128.92Q230.03 129.78 230.40 130.47Q230.77 131.16 231.39 131.55Q232.01 131.94 232.74 131.94L232.74 131.94ZM259.39 123.71Q261.18 123.71 262.25 124.79Q263.32 125.87 263.34 127.87L263.34 127.87L263.34 132.82Q263.34 133.31 262.98 133.65Q262.63 134 262.14 134L262.14 134Q261.66 134 261.31 133.65Q260.97 133.31 260.97 132.82L260.97 132.82L260.97 128.22Q260.97 127.15 260.30 126.52Q259.64 125.89 258.70 125.89L258.70 125.89Q257.71 125.89 257.04 126.59Q256.37 127.28 256.37 128.31L256.37 128.31L256.37 132.82Q256.37 133.31 256.01 133.65Q255.65 134 255.17 134L255.17 134Q254.69 134 254.34 133.65Q253.99 133.31 253.99 132.82L253.99 132.82L253.99 128.22Q253.99 127.15 253.33 126.52Q252.67 125.89 251.73 125.89L251.73 125.89Q250.74 125.89 250.07 126.59Q249.40 127.28 249.40 128.31L249.40 128.31L249.40 132.82Q249.40 133.31 249.04 133.65Q248.68 134 248.20 134L248.20 134Q247.72 134 247.37 133.65Q247.02 133.31 247.02 132.82L247.02 132.82L247.02 125.01Q247.02 124.53 247.37 124.17Q247.72 123.81 248.20 123.81L248.20 123.81Q248.68 123.81 249.04 124.17Q249.40 124.53 249.40 125.01L249.40 125.01L249.40 125.12Q249.92 124.44 250.72 124.08Q251.52 123.71 252.50 123.71L252.50 123.71Q253.62 123.71 254.47 124.17Q255.32 124.63 255.80 125.50L255.80 125.50Q256.37 124.66 257.29 124.18Q258.22 123.71 259.39 123.71L259.39 123.71ZM270.42 134.08Q268.99 134.08 267.89 133.43Q266.78 132.78 266.16 131.62Q265.54 130.45 265.54 128.98L265.54 128.98Q265.54 127.47 266.17 126.26Q266.80 125.05 267.90 124.38Q268.99 123.71 270.29 123.71L270.29 123.71Q271.68 123.71 272.76 124.40Q273.84 125.10 274.45 126.30Q275.06 127.51 275.06 128.96L275.06 128.96Q275.06 129.38 274.76 129.68Q274.47 129.99 274.03 129.99L274.03 129.99L268.04 129.99Q268.27 130.89 268.90 131.40Q269.53 131.90 270.48 131.90L270.48 131.90Q271.59 131.92 272.85 131.33L272.85 131.33Q273.15 131.25 273.27 131.25L273.27 131.25Q273.73 131.25 274.06 131.57Q274.39 131.90 274.39 132.36L274.39 132.36Q274.39 132.70 274.19 132.98Q273.99 133.26 273.67 133.37L273.67 133.37Q272.01 134.08 270.42 134.08L270.42 134.08ZM268.04 127.97L272.52 127.97Q272.37 127.07 271.73 126.49Q271.09 125.91 270.29 125.91L270.29 125.91Q269.49 125.91 268.84 126.49Q268.19 127.07 268.04 127.97L268.04 127.97ZM285.98 119.17Q286.46 119.17 286.82 119.53Q287.17 119.89 287.17 120.37L287.17 120.37L287.17 132.80Q287.17 133.29 286.82 133.64Q286.46 134 285.98 134L285.98 134Q285.47 134 285.12 133.64Q284.76 133.29 284.76 132.80L284.76 132.80L284.76 132.76Q284.13 133.41 283.32 133.77Q282.51 134.13 281.61 134.13L281.61 134.13Q280.33 134.13 279.28 133.45Q278.23 132.78 277.61 131.60Q276.99 130.41 276.99 128.92L276.99 128.92Q276.99 127.43 277.61 126.24Q278.23 125.05 279.28 124.38Q280.33 123.71 281.61 123.71L281.61 123.71Q282.51 123.71 283.32 124.07Q284.13 124.42 284.76 125.08L284.76 125.08L284.76 120.37Q284.76 119.89 285.12 119.53Q285.47 119.17 285.98 119.17L285.98 119.17ZM282.13 131.94Q282.87 131.94 283.49 131.55Q284.11 131.16 284.48 130.47Q284.84 129.78 284.84 128.92L284.84 128.92Q284.84 128.06 284.48 127.36Q284.11 126.67 283.49 126.28Q282.87 125.89 282.13 125.89L282.13 125.89Q281.40 125.89 280.78 126.28Q280.16 126.67 279.79 127.36Q279.43 128.06 279.43 128.92L279.43 128.92Q279.43 129.78 279.79 130.47Q280.16 131.16 280.78 131.55Q281.40 131.94 282.13 131.94L282.13 131.94ZM291.08 122.68Q290.51 122.68 290.10 122.28Q289.69 121.88 289.69 121.27L289.69 121.27Q289.69 120.64 290.10 120.25Q290.51 119.85 291.08 119.85L291.08 119.85Q291.67 119.85 292.08 120.25Q292.49 120.64 292.49 121.27L292.49 121.27Q292.49 121.88 292.08 122.28Q291.67 122.68 291.08 122.68L291.08 122.68ZM291.08 134Q290.60 134 290.24 133.64Q289.88 133.29 289.88 132.80L289.88 132.80L289.88 125.03Q289.88 124.53 290.24 124.18Q290.60 123.84 291.08 123.84L291.08 123.84Q291.58 123.84 291.93 124.18Q292.28 124.53 292.28 125.03L292.28 125.03L292.28 132.80Q292.28 133.29 291.93 133.64Q291.58 134 291.08 134L291.08 134ZM299.86 134.13Q298.45 134.13 297.28 133.45Q296.10 132.78 295.41 131.60Q294.71 130.41 294.71 128.92L294.71 128.92Q294.71 127.43 295.41 126.24Q296.10 125.05 297.28 124.38Q298.45 123.71 299.86 123.71L299.86 123.71Q301.71 123.71 303.05 124.80L303.05 124.80Q303.26 124.95 303.39 125.18Q303.51 125.41 303.51 125.68L303.51 125.68Q303.51 126.15 303.19 126.48Q302.86 126.82 302.38 126.82L302.38 126.82Q302.00 126.82 301.69 126.57L301.69 126.57Q300.91 125.89 299.86 125.89L299.86 125.89Q299.12 125.89 298.50 126.28Q297.88 126.67 297.52 127.36Q297.15 128.06 297.15 128.92L297.15 128.92Q297.15 129.78 297.52 130.47Q297.88 131.16 298.50 131.55Q299.12 131.94 299.86 131.94L299.86 131.94Q300.91 131.94 301.69 131.27L301.69 131.27Q302.00 131.02 302.38 131.02L302.38 131.02Q302.84 131.02 303.17 131.34Q303.49 131.67 303.49 132.13L303.49 132.13Q303.49 132.70 303.05 133.03L303.05 133.03Q301.71 134.13 299.86 134.13L299.86 134.13ZM307.10 122.68Q306.54 122.68 306.13 122.28Q305.72 121.88 305.72 121.27L305.72 121.27Q305.72 120.64 306.13 120.25Q306.54 119.85 307.10 119.85L307.10 119.85Q307.69 119.85 308.10 120.25Q308.51 120.64 308.51 121.27L308.51 121.27Q308.51 121.88 308.10 122.28Q307.69 122.68 307.10 122.68L307.10 122.68ZM307.10 134Q306.62 134 306.26 133.64Q305.91 133.29 305.91 132.80L305.91 132.80L305.91 125.03Q305.91 124.53 306.26 124.18Q306.62 123.84 307.10 123.84L307.10 123.84Q307.61 123.84 307.95 124.18Q308.30 124.53 308.30 125.03L308.30 125.03L308.30 132.80Q308.30 133.29 307.95 133.64Q307.61 134 307.10 134L307.10 134ZM316.51 123.71Q318.25 123.71 319.31 124.81Q320.38 125.91 320.38 127.87L320.38 127.87L320.38 132.82Q320.38 133.31 320.02 133.65Q319.66 134 319.18 134L319.18 134Q318.69 134 318.35 133.65Q318.00 133.31 318.00 132.82L318.00 132.82L318.00 128.22Q318.00 127.15 317.34 126.52Q316.68 125.89 315.73 125.89L315.73 125.89Q314.75 125.89 314.07 126.59Q313.40 127.28 313.40 128.31L313.40 128.31L313.40 132.82Q313.40 133.31 313.05 133.65Q312.69 134 312.21 134L312.21 134Q311.72 134 311.38 133.65Q311.03 133.31 311.03 132.82L311.03 132.82L311.03 125.01Q311.03 124.53 311.38 124.18Q311.72 123.84 312.21 123.84L312.21 123.84Q312.69 123.84 313.05 124.18Q313.40 124.53 313.40 125.01L313.40 125.01L313.40 125.12Q313.93 124.44 314.73 124.08Q315.52 123.71 316.51 123.71L316.51 123.71ZM331.57 123.84Q332.05 123.84 332.41 124.18Q332.76 124.53 332.76 125.03L332.76 125.03L332.76 132.80Q332.76 133.29 332.41 133.64Q332.05 134 331.57 134L331.57 134Q331.06 134 330.71 133.64Q330.35 133.29 330.35 132.80L330.35 132.80L330.35 132.76Q329.72 133.41 328.91 133.77Q328.10 134.13 327.20 134.13L327.20 134.13Q325.92 134.13 324.87 133.45Q323.82 132.78 323.20 131.60Q322.58 130.41 322.58 128.92L322.58 128.92Q322.58 127.43 323.20 126.24Q323.82 125.05 324.87 124.38Q325.92 123.71 327.20 123.71L327.20 123.71Q328.10 123.71 328.91 124.07Q329.72 124.42 330.35 125.08L330.35 125.08L330.35 125.03Q330.35 124.53 330.71 124.18Q331.06 123.84 331.57 123.84L331.57 123.84ZM327.73 131.94Q328.46 131.94 329.08 131.55Q329.70 131.16 330.07 130.47Q330.43 129.78 330.43 128.92L330.43 128.92Q330.43 128.06 330.07 127.36Q329.70 126.67 329.08 126.28Q328.46 125.89 327.73 125.89L327.73 125.89Q326.99 125.89 326.37 126.28Q325.75 126.67 325.38 127.36Q325.02 128.06 325.02 128.92L325.02 128.92Q325.02 129.78 325.38 130.47Q325.75 131.16 326.37 131.55Q326.99 131.94 327.73 131.94L327.73 131.94Z" fill="rgba(255,255,255,0.65)"></path>
</svg>